<svg width="21" height="21" viewBox="0 0 21 21" fill="none" xmlns="http://www.w3.org/2000/svg">
<path d="M18.2778 0.5H2.72222C1.5 0.5 0.5 1.5 0.5 2.72222V18.2778C0.5 19.5011 1.5 20.5 2.72222 20.5H10.5V12.7222H8.27778V9.97222H10.5V7.69444C10.5 5.29 11.8467 3.60111 14.6844 3.60111L16.6878 3.60333V6.49778H15.3578C14.2533 6.49778 13.8333 7.32667 13.8333 8.09556V9.97333H16.6867L16.0556 12.7222H13.8333V20.5H18.2778C19.5 20.5 20.5 19.5011 20.5 18.2778V2.72222C20.5 1.5 19.5 0.5 18.2778 0.5Z" fill="white"/>
</svg>
