<svg width="21" height="21" viewBox="0 0 21 21" fill="none" xmlns="http://www.w3.org/2000/svg">
<path d="M10.4973 7.16531C8.66111 7.16531 7.16262 8.66379 7.16262 10.5C7.16262 12.3362 8.66111 13.8347 10.4973 13.8347C12.3335 13.8347 13.832 12.3362 13.832 10.5C13.832 8.66379 12.3335 7.16531 10.4973 7.16531ZM20.4989 10.5C20.4989 9.11909 20.5114 7.75069 20.4338 6.37228C20.3563 4.77123 19.9911 3.3503 18.8203 2.17953C17.647 1.00626 16.2286 0.643521 14.6275 0.56597C13.2466 0.488419 11.8782 0.500927 10.4998 0.500927C9.11891 0.500927 7.75051 0.488419 6.3721 0.56597C4.77105 0.643521 3.35012 1.00876 2.17935 2.17953C1.00608 3.3528 0.643338 4.77123 0.565787 6.37228C0.488236 7.75319 0.500744 9.12159 0.500744 10.5C0.500744 11.8784 0.488236 13.2493 0.565787 14.6277C0.643338 16.2288 1.00858 17.6497 2.17935 18.8205C3.35262 19.9937 4.77105 20.3565 6.3721 20.434C7.75301 20.5116 9.12141 20.4991 10.4998 20.4991C11.8807 20.4991 13.2491 20.5116 14.6275 20.434C16.2286 20.3565 17.6495 19.9912 18.8203 18.8205C19.9936 17.6472 20.3563 16.2288 20.4338 14.6277C20.5139 13.2493 20.4989 11.8809 20.4989 10.5ZM10.4973 15.6309C7.65795 15.6309 5.36644 13.3394 5.36644 10.5C5.36644 7.66063 7.65795 5.36913 10.4973 5.36913C13.3367 5.36913 15.6282 7.66063 15.6282 10.5C15.6282 13.3394 13.3367 15.6309 10.4973 15.6309ZM15.8383 6.35728C15.1754 6.35728 14.64 5.82192 14.64 5.15899C14.64 4.49605 15.1754 3.9607 15.8383 3.9607C16.5013 3.9607 17.0366 4.49605 17.0366 5.15899C17.0368 5.3164 17.0059 5.47231 16.9458 5.61779C16.8856 5.76326 16.7974 5.89543 16.6861 6.00675C16.5748 6.11806 16.4426 6.20631 16.2971 6.26646C16.1516 6.32661 15.9957 6.35747 15.8383 6.35728Z" fill="white"/>
</svg>
