<svg width="21" height="21" viewBox="0 0 21 21" fill="none" xmlns="http://www.w3.org/2000/svg">
<path d="M18.2778 0.5C18.8671 0.5 19.4324 0.734126 19.8491 1.15087C20.2659 1.56762 20.5 2.13285 20.5 2.72222V18.2778C20.5 18.8671 20.2659 19.4324 19.8491 19.8491C19.4324 20.2659 18.8671 20.5 18.2778 20.5H2.72222C2.13285 20.5 1.56762 20.2659 1.15087 19.8491C0.734126 19.4324 0.5 18.8671 0.5 18.2778V2.72222C0.5 2.13285 0.734126 1.56762 1.15087 1.15087C1.56762 0.734126 2.13285 0.5 2.72222 0.5H18.2778ZM17.7222 17.7222V11.8333C17.7222 10.8727 17.3406 9.95133 16.6613 9.27204C15.982 8.59274 15.0607 8.21111 14.1 8.21111C13.1556 8.21111 12.0556 8.78889 11.5222 9.65556V8.42222H8.42222V17.7222H11.5222V12.2444C11.5222 11.3889 12.2111 10.6889 13.0667 10.6889C13.4792 10.6889 13.8749 10.8528 14.1666 11.1445C14.4583 11.4362 14.6222 11.8319 14.6222 12.2444V17.7222H17.7222ZM4.81111 6.67778C5.30618 6.67778 5.78098 6.48111 6.13104 6.13104C6.48111 5.78098 6.67778 5.30618 6.67778 4.81111C6.67778 3.77778 5.84444 2.93333 4.81111 2.93333C4.31309 2.93333 3.83547 3.13117 3.48332 3.48332C3.13117 3.83547 2.93333 4.31309 2.93333 4.81111C2.93333 5.84444 3.77778 6.67778 4.81111 6.67778ZM6.35556 17.7222V8.42222H3.27778V17.7222H6.35556Z" fill="white"/>
</svg>
