<svg width="21" height="17" viewBox="0 0 21 17" fill="none" xmlns="http://www.w3.org/2000/svg">
<path fill-rule="evenodd" clip-rule="evenodd" d="M10.5 0.5C11.355 0.5 12.232 0.522 13.082 0.558L14.086 0.606L15.047 0.663L15.947 0.724L16.769 0.788C17.6612 0.855891 18.5008 1.23643 19.14 1.8626C19.7791 2.48877 20.1768 3.3204 20.263 4.211L20.303 4.636L20.378 5.546C20.448 6.489 20.5 7.517 20.5 8.5C20.5 9.483 20.448 10.511 20.378 11.454L20.303 12.364L20.263 12.789C20.1768 13.6798 19.7789 14.5115 19.1396 15.1377C18.5002 15.7639 17.6604 16.1443 16.768 16.212L15.948 16.275L15.048 16.337L14.086 16.394L13.082 16.442C12.2218 16.4793 11.361 16.4986 10.5 16.5C9.63902 16.4986 8.77817 16.4793 7.918 16.442L6.914 16.394L5.953 16.337L5.053 16.275L4.231 16.212C3.33881 16.1441 2.4992 15.7636 1.86004 15.1374C1.22089 14.5112 0.823191 13.6796 0.737 12.789L0.697 12.364L0.622 11.454C0.545833 10.4711 0.50514 9.48581 0.5 8.5C0.5 7.517 0.552 6.489 0.622 5.546L0.697 4.636L0.737 4.211C0.823157 3.32055 1.22071 2.48905 1.85966 1.86291C2.49861 1.23676 3.33799 0.856116 4.23 0.788L5.051 0.724L5.951 0.663L6.913 0.606L7.917 0.558C8.7775 0.520727 9.63869 0.50139 10.5 0.5ZM8.5 6.075V10.925C8.5 11.387 9 11.675 9.4 11.445L13.6 9.02C13.6914 8.96739 13.7673 8.89162 13.8201 8.80033C13.8729 8.70904 13.9007 8.60545 13.9007 8.5C13.9007 8.39455 13.8729 8.29096 13.8201 8.19967C13.7673 8.10838 13.6914 8.03261 13.6 7.98L9.4 5.556C9.30876 5.50332 9.20526 5.4756 9.0999 5.47562C8.99455 5.47563 8.89106 5.50339 8.79983 5.5561C8.70861 5.6088 8.63287 5.6846 8.58024 5.77587C8.52761 5.86713 8.49993 5.97065 8.5 6.076V6.075Z" fill="white"/>
</svg>
