<svg width="100" height="50" viewBox="0 0 100 50" fill="none" xmlns="http://www.w3.org/2000/svg">
<g clip-path="url(#clip0_16_252)">
<path d="M0 37.3266V1.10563C0.169562 0.993703 0.355866 0.912602 0.551088 0.865723C6.73717 0.933523 12.9282 0.787485 19.0994 1.15256C24.9479 1.49678 29.3814 5.26752 30.7914 10.3838C33.1745 19.0466 27.9317 26.7915 18.9703 27.5946C16.0361 27.8606 13.0573 27.6363 9.8451 27.6363V37.3266H0ZM9.9295 19.8654C12.6303 19.7037 15.2269 19.735 17.7589 19.3439C20.0129 18.9892 21.2938 17.0334 21.3832 14.5874C21.4725 12.1414 20.3356 9.96658 18.1412 9.53371C15.4652 9.01217 12.68 9.01217 9.9295 8.80355V19.8654Z" fill="white"/>
<path d="M71.3633 34.505C72.5697 31.8973 73.7166 29.4096 74.9131 26.8123C78.3288 28.9506 81.8389 30.025 85.6518 29.6599C86.5554 29.5765 87.6675 29.4461 88.2583 28.862C89.1227 28.0285 89.7223 26.9361 89.9761 25.7327C90.1896 24.335 89.2016 23.2554 87.8611 22.9425C86.5932 22.6846 85.3087 22.526 84.0184 22.4679C82.9808 22.3949 81.9382 22.4679 80.6225 22.4679C80.9899 19.8132 79.6544 17.1795 81.536 14.9108C83.1397 12.9811 84.8326 11.1296 86.754 8.93916H73.2797V0.959595H98.2424C98.2176 4.12012 99.151 7.31716 96.1572 9.82577C94.3501 11.3487 92.9252 13.3775 91.1925 15.3332C91.8627 15.5888 92.3542 15.7765 92.8458 15.9539C96.5643 17.3099 99.2006 19.7976 99.8312 24.0064C100.531 28.6429 99.0318 32.4606 95.3232 35.1882C92.0911 37.5665 88.3725 38.2132 84.5596 38.1245C79.9424 38.0254 75.494 37.1388 71.3633 34.505Z" fill="white"/>
<path d="M38.9337 37.2745C38.9337 35.4126 38.8443 33.655 38.9783 31.9183C39.0943 31.1794 39.4441 30.5031 39.9713 29.999C44.0474 25.9101 48.2426 21.9517 52.2442 17.7898C53.4661 16.5281 54.3924 14.9856 54.9499 13.2837C55.7344 10.7594 54.24 8.86622 51.6682 8.58981C48.6249 8.23516 46.2467 9.50251 44.4048 12.032L36.8584 7.59889C38.6407 5.88824 40.0209 4.09414 41.7785 2.96761C47.2794 -0.557996 53.1974 -0.834413 59.0359 1.80979C65.2568 4.62089 67.0639 12.1363 63.0921 18.2226C61.8112 20.1784 60.1133 21.8421 58.4848 23.5371C56.7323 25.373 54.8705 27.0888 52.6413 29.2741H65.9369V37.2745H38.9337Z" fill="white"/>
<path d="M39.708 45.4261V49.8331H0.168701V45.4261H39.708Z" fill="white"/>
<path d="M49.7766 49.7236C49.7766 49.7497 49.7765 49.7601 49.707 49.7601H49.5482H49.3843H49.2205H49.0517C49.0021 49.7601 48.9325 49.6036 48.8481 49.2959C48.7637 48.9882 48.6744 48.8318 48.59 48.8265H47.0211C46.9516 48.8265 46.8771 48.983 46.7977 49.2959C46.7183 49.6036 46.6587 49.7601 46.614 49.7601H45.9636C45.9239 49.7601 45.9041 49.7601 45.9041 49.7184C45.9122 49.67 45.9255 49.6228 45.9438 49.5776L46.6587 47.5331C46.7183 47.3662 46.902 46.8916 47.2048 46.1041C47.2594 45.9737 47.3339 45.7755 47.4233 45.5148C47.4481 45.4365 47.4729 45.4 47.5027 45.4H47.6616H47.8254C47.8782 45.4056 47.9315 45.4056 47.9843 45.4H48.1431C48.1431 45.4 48.1829 45.4365 48.2127 45.5148C48.2424 45.593 48.4907 46.2449 48.9028 47.3558C49.4886 48.9204 49.7766 49.7079 49.7766 49.7236ZM48.4112 48.0338C48.3465 47.7624 48.2601 47.4972 48.1531 47.2411C47.9843 46.7873 47.8651 46.4848 47.7956 46.344C47.3935 47.4184 47.1899 47.9817 47.1899 48.0338C47.1899 48.086 47.2644 48.1433 47.4133 48.1538H47.9992C48.2822 48.159 48.4112 48.1173 48.4112 48.0338Z" fill="white"/>
<path d="M57.7003 45.9372C57.7003 45.9789 57.7003 45.9945 57.6407 45.9945C57.4868 45.9945 57.2385 45.9945 56.896 45.9685C56.5534 45.9424 56.325 45.9685 56.1513 45.9685H55.9378C55.8668 45.9612 55.7953 45.9612 55.7243 45.9685C55.6846 45.9685 55.6647 46.0467 55.6647 46.1614V46.8968C55.6647 47.0324 55.6945 47.1054 55.7491 47.1054C55.9378 47.1054 56.2208 47.095 56.5981 47.0741C56.9804 47.0741 57.2634 47.0741 57.452 47.0741C57.4917 47.0741 57.5116 47.0741 57.5116 47.1263C57.5116 47.1784 57.5116 47.2097 57.5116 47.2775C57.5116 47.3453 57.5116 47.3975 57.5116 47.434C57.5116 47.4705 57.5116 47.5226 57.5116 47.6009C57.5116 47.6791 57.5116 47.7313 57.5116 47.7678C57.5116 47.8043 57.4868 47.8043 57.4471 47.8043H56.8364H56.2257H55.8037C55.7144 47.8043 55.6697 47.8512 55.6697 47.919C55.6697 48.1016 55.6697 48.378 55.6697 48.743C55.6697 49.1081 55.6697 49.3845 55.6697 49.5671C55.6697 49.6297 55.6449 49.661 55.6002 49.661H55.4264C55.3686 49.6567 55.3105 49.6567 55.2526 49.661H55.0987H54.9498C54.9002 49.661 54.8753 49.661 54.8753 49.5932C54.8753 49.3689 54.8753 49.0299 54.9051 48.5501C54.9349 48.0703 54.9299 47.7573 54.9299 47.507C54.9299 47.2567 54.9299 46.6152 54.8704 45.4573V45.4208C54.8704 45.3739 54.8704 45.353 54.9448 45.3426H55.3122C55.6151 45.3426 55.8981 45.3426 56.1612 45.3426C56.5087 45.3426 56.9556 45.3217 57.5017 45.28C57.5161 45.277 57.531 45.2773 57.5454 45.2808C57.5597 45.2843 57.5732 45.2909 57.5849 45.3003C57.5967 45.3096 57.6064 45.3215 57.6134 45.3351C57.6204 45.3487 57.6247 45.3637 57.6258 45.3791C57.6192 45.4624 57.6192 45.5461 57.6258 45.6294C57.6571 45.7302 57.682 45.833 57.7003 45.9372Z" fill="white"/>
<path d="M66.2098 49.7027C66.2098 49.7027 66.2098 49.7288 66.1652 49.7288H65.9964H65.8275H65.6438H65.4651C65.4423 49.7282 65.4202 49.7204 65.4016 49.7065C65.383 49.6925 65.3688 49.6731 65.3609 49.6506C65.3013 49.5097 65.1225 49.0821 64.8346 48.3624C64.8048 48.2893 64.7353 48.2476 64.6211 48.2268H64.358C64.0899 48.2268 63.931 48.2268 63.8615 48.2268C63.792 48.2268 63.8019 48.2841 63.8019 48.3832C63.8019 48.4823 63.8019 48.7379 63.8019 49.0247C63.8019 49.3116 63.8019 49.5202 63.8019 49.661C63.8027 49.6694 63.8017 49.6779 63.799 49.6859C63.7962 49.6938 63.7919 49.7011 63.7862 49.707C63.7805 49.713 63.7736 49.7176 63.766 49.7204C63.7585 49.7233 63.7504 49.7244 63.7424 49.7236H63.5686H63.3899H63.2359H63.087C63.0374 49.7236 63.0125 49.6975 63.0125 49.6506C63.0125 49.428 63.0225 49.089 63.0423 48.6336C63.0423 48.1798 63.0721 47.8408 63.0721 47.5905C63.0721 46.949 63.0721 46.2605 63.0076 45.5304V45.4835C63.0076 45.4417 63.0473 45.4209 63.1317 45.4209H63.8814H64.6261C64.9968 45.4025 65.3625 45.5164 65.6637 45.7442C65.8055 45.8669 65.918 46.0229 65.9922 46.1995C66.0663 46.3761 66.1 46.5685 66.0907 46.7612C66.0996 47.0034 66.0607 47.2449 65.9765 47.4705C65.8698 47.683 65.7124 47.8627 65.5197 47.9921C65.485 48.0181 65.4651 48.0442 65.4651 48.0703C65.4651 48.0964 65.5843 48.3676 65.8126 48.8839C65.9608 49.1481 66.0935 49.4215 66.2098 49.7027ZM65.4155 46.9281C65.4339 46.7882 65.4154 46.6456 65.362 46.5159C65.3086 46.3863 65.2223 46.2745 65.1126 46.1928C64.8595 46.0777 64.5833 46.0293 64.3083 46.0519C63.9906 46.0519 63.8119 46.078 63.8119 46.1302C63.8119 46.1823 63.8119 46.537 63.8119 47.0168V47.6009H63.8466H64.0204C64.2057 47.6009 64.4043 47.6009 64.6162 47.6009C65.1474 47.6426 65.4155 47.4027 65.4155 46.9281Z" fill="white"/>
<path d="M72.8825 49.8436C72.8825 49.8853 72.8528 49.9062 72.7981 49.9062H72.6393H72.4754H72.3166H72.1527C72.1434 49.907 72.134 49.9056 72.1253 49.9022C72.1165 49.8988 72.1085 49.8935 72.1019 49.8865C72.0953 49.8796 72.0902 49.8712 72.087 49.862C72.0838 49.8528 72.0825 49.8429 72.0832 49.8331C72.0832 49.6037 72.0931 49.256 72.113 48.7901C72.113 48.3207 72.1428 47.9712 72.1428 47.747C72.1428 47.5227 72.1428 47.1837 72.113 46.73C72.0832 46.2763 72.0832 45.9373 72.0832 45.6869C72.0832 45.64 72.0832 45.6139 72.1478 45.6139C72.204 45.6097 72.2604 45.6097 72.3166 45.6139H72.6442C72.6971 45.6097 72.7502 45.6097 72.8031 45.6139C72.8528 45.6139 72.8776 45.6139 72.8776 45.6713C72.8776 45.9007 72.8776 46.245 72.8776 46.7143C72.8776 47.1837 72.8528 47.5123 72.8528 47.7574C72.8528 48.0025 72.8528 48.3468 72.8776 48.8005C72.9024 49.2542 72.8825 49.6089 72.8825 49.8436Z" fill="white"/>
<path d="M81.1787 49.2021C81.1787 49.2282 81.1787 49.2595 81.1191 49.3064C80.9494 49.5249 80.7349 49.7003 80.4916 49.8195C80.2483 49.9387 79.9825 49.9986 79.7141 49.9948C79.448 50.0059 79.1833 49.9512 78.941 49.8353C78.6987 49.7193 78.4857 49.5453 78.319 49.3273C77.9967 48.8759 77.8225 48.3269 77.8225 47.7626C77.8225 47.1984 77.9967 46.6494 78.319 46.198C78.4865 45.9789 78.7001 45.8035 78.943 45.6859C79.186 45.5682 79.4516 45.5114 79.719 45.52C79.9773 45.5057 80.2351 45.5548 80.4721 45.6634C80.7091 45.772 80.9188 45.9372 81.0844 46.1459C81.1091 46.177 81.1246 46.2151 81.129 46.2554C81.0935 46.3658 81.0416 46.4697 80.9751 46.5631C80.8709 46.73 80.8113 46.8186 80.7865 46.8186C80.7616 46.8186 80.7021 46.7665 80.6127 46.6674C80.5173 46.5606 80.4088 46.4677 80.29 46.391C80.1204 46.2905 79.9287 46.2384 79.7339 46.2397C79.5599 46.2326 79.387 46.2713 79.2309 46.3524C79.0748 46.4334 78.9405 46.5543 78.8403 46.7039C78.6406 47.0103 78.5397 47.3759 78.5523 47.747C78.541 48.1172 78.6399 48.4818 78.8353 48.7901C78.9334 48.9427 79.067 49.0664 79.2234 49.1495C79.3798 49.2325 79.5539 49.2722 79.729 49.2647C79.9217 49.2626 80.111 49.2107 80.2801 49.1134C80.4092 49.039 80.5279 48.9459 80.6326 48.837C80.6844 48.7814 80.7409 48.7308 80.8014 48.6858C80.9346 48.8509 81.0574 49.0251 81.1688 49.2073L81.1787 49.2021Z" fill="white"/>
<path d="M90.0108 49.588C90.0108 49.614 89.9859 49.6245 89.9413 49.6245C89.8867 49.6288 89.832 49.6288 89.7774 49.6245H89.4498C89.3952 49.6285 89.3404 49.6285 89.2859 49.6245C89.2313 49.6245 89.1618 49.4732 89.0774 49.1603C88.993 48.8474 88.9086 48.6961 88.8192 48.6961C88.7299 48.6961 88.5611 48.6961 88.2582 48.6961H87.7965C87.4787 48.6961 87.3 48.6961 87.2504 48.6961C87.2007 48.6961 87.1064 48.8578 87.0269 49.1655C86.9475 49.4732 86.8879 49.6245 86.8482 49.6245H86.1929C86.1532 49.6245 86.1333 49.6245 86.1333 49.5828C86.1412 49.5353 86.1563 49.4895 86.178 49.4471L86.8879 47.3975C86.9475 47.2306 87.1312 46.756 87.4341 45.9685C87.4887 45.8381 87.5631 45.6451 87.6575 45.3791C87.6575 45.3061 87.7071 45.2644 87.732 45.2644H87.8958H88.0596H88.2185H88.3724C88.3724 45.2644 88.4121 45.3009 88.4469 45.3739C88.4816 45.4469 88.7199 46.1041 89.132 47.2202C89.7178 48.7848 90.0108 49.574 90.0108 49.588ZM88.6554 47.9034C88.5879 47.6305 88.4999 47.3637 88.3923 47.1054C88.2235 46.6517 88.1043 46.3544 88.0348 46.2084C87.6326 47.2828 87.4341 47.846 87.4341 47.8982C87.4341 47.9503 87.5036 48.0077 87.6525 48.0233H88.2384C88.5164 48.0233 88.6554 47.9816 88.6554 47.9034Z" fill="white"/>
</g>
<defs>
<clipPath id="clip0_16_252">
<rect width="100" height="50" fill="white"/>
</clipPath>
</defs>
</svg>
